<?xml version="1.0" encoding="utf-8"?>
<svg viewBox="0 0 500 500" version="1.1" id="svg5" xmlns="http://www.w3.org/2000/svg" xmlns:bx="https://boxy-svg.com">
  <defs id="defs1">
    <bx:export>
      <bx:file format="png" path="club-wizards.png"/>
    </bx:export>
  </defs>
  <rect width="500" height="500" style="stroke-width: 1.001; fill: rgb(246, 246, 246);" rx="65.745" ry="65.745" id="rect2"/>
  <g transform="matrix(1.894267, 0, 0, 1.894267, -219.62178, -444.564209)" id="g14" style="">
    <title id="title5">Rosto</title>
    <g id="g8">
      <title id="title6">Barba</title>
      <rect x="-134.04132" y="446.15594" width="32.340004" height="32.340004" style="fill:#ddf4ff;stroke-width:3.311;stroke-linecap:round;stroke-linejoin:round" rx="7.7800012" ry="7.7800012" transform="rotate(-45.450523)" id="rect6"/>
      <rect x="237.98" y="387.231" width="16.568" height="9.661" style="stroke-width: 4px; stroke: rgb(235, 96, 133); fill: rgb(235, 96, 133);" id="rect7"/>
      <path d="M 221.811 353.3 C 223.922 353.287 231.133 353.672 229.696 353.651 C 228.688 353.637 238.358 355.438 239.639 356.002 C 240.713 356.476 249.609 375.647 250.111 377.845 C 250.6 379.991 238.768 401.827 233.568 403.376 C 226.543 405.469 211.034 405.744 204.753 404.485 C 200.813 403.695 198.706 401.993 196.856 400.191 C 195.249 398.624 194.367 396.657 193.809 394.649 C 193.24 392.6 192.85 391.031 193.532 387.999 C 194.676 382.909 200.491 371.221 203.506 365.834 C 205.648 362.007 207.375 359.338 209.463 357.384 C 211.151 355.803 213.085 354.836 214.92 354.24 C 216.692 353.664 219.837 353.313 221.811 353.3 Z" style="fill: rgb(221, 244, 255); stroke-width: 3px;" id="path7"/>
      <path d="m 272.73944,353.29992 c -2.135,-0.013 -9.429,0.376 -7.975,0.355 1.02,-0.015 -8.763,1.807 -10.057,2.378 -1.087,0.48 -10.085,19.871 -10.593,22.094 -0.495,2.171 11.473,24.259 16.733,25.825 7.106,2.117 22.794,2.395 29.146,1.122 3.986,-0.8 6.117,-2.52 7.988,-4.344 1.626,-1.585 2.519,-3.575 3.083,-5.606 0.575,-2.072 0.969,-3.659 0.28,-6.726 -1.157,-5.148 -7.039,-16.971 -10.089,-22.42 -2.167,-3.871 -3.914,-6.571 -6.026,-8.547 -1.708,-1.599 -3.663,-2.577 -5.52,-3.18 -1.792,-0.583 -4.973,-0.938 -6.97,-0.951 z" style="fill:#ddf4ff;stroke-width:3px" id="path8"/>
      <path d="M 263.918 413.724 L 252.146 425.682 C 249.132 428.745 244.206 428.783 241.144 425.769 L 229.186 413.997 C 226.58 411.433 226.164 407.484 227.955 404.477 C 220.203 405.544 209.448 405.509 204.476 404.512 C 200.536 403.722 198.429 402.02 196.578 400.218 C 194.972 398.651 194.09 396.684 193.532 394.676 C 192.963 392.627 192.573 391.058 193.255 388.026 C 194.399 382.936 200.214 371.248 203.229 365.861 C 205.371 362.034 207.098 359.365 209.187 357.411 C 210.874 355.829 212.808 354.863 214.643 354.267 C 216.415 353.691 219.56 353.341 221.534 353.327 C 223.646 353.314 230.856 353.699 229.419 353.678 C 228.412 353.664 238.081 355.465 239.362 356.029 C 240.058 356.337 244.044 364.508 246.898 370.814 C 249.777 364.464 253.733 356.368 254.43 356.06 C 255.724 355.489 265.507 353.667 264.487 353.682 C 263.033 353.703 270.327 353.314 272.462 353.327 C 274.459 353.34 277.64 353.695 279.432 354.278 C 281.289 354.88 283.244 355.859 284.952 357.458 C 287.064 359.434 288.811 362.134 290.978 366.005 C 294.028 371.454 299.91 383.277 301.067 388.425 C 301.756 391.492 301.362 393.079 300.787 395.151 C 300.223 397.182 299.33 399.172 297.704 400.757 C 295.833 402.581 293.702 404.301 289.716 405.102 C 284.572 406.132 273.305 406.146 265.432 404.989 C 266.758 407.847 266.258 411.347 263.918 413.724 Z M 244.86 388.871 C 246.147 388.61 247.487 388.676 248.748 389.071 C 248.031 387.809 247.359 386.573 246.757 385.41 C 246.178 386.517 245.539 387.685 244.86 388.871 Z" style="stroke-linecap: round; stroke-linejoin: round; fill: none; stroke-width: 7.37392px; stroke: rgb(77, 193, 250);" id="rect-4"/>
      <rect x="237.98" y="384.05" width="16.568" height="8.907" style="stroke-width: 0.298; fill: rgb(221, 244, 255);" id="rect3"/>
    </g>
    <g id="g10">
      <title id="title8">silhios</title>
      <path d="M 235.312 313.193 C 237.958 313.962 240.348 315.45 242.177 317.401 C 244.071 319.42 245.678 322.571 246.383 325.221 C 247.041 327.682 247.064 330.199 246.55 332.716 C 246.001 335.402 244.482 338.663 242.958 340.841 C 241.598 342.785 241.098 343.301 238.095 345.405 C 231.735 349.86 208.11 364.06 200.419 366.61 C 196.481 367.917 194.854 367.388 192.432 366.975 C 190.168 366.59 188.085 365.633 186.269 364.423 C 184.454 363.212 182.743 361.545 181.538 359.712 C 180.331 357.877 179.439 355.598 179.033 353.418 C 178.631 351.256 178.614 348.932 179.095 346.685 C 179.604 344.317 180.143 342.053 182.16 339.577 C 185.012 336.075 190.624 332.307 196.682 328.425 C 204.335 323.521 218.543 314.813 225.472 312.919 C 229.786 311.741 232.452 312.362 235.312 313.193 Z" style="fill: rgb(221, 244, 255); stroke-width: 7.37392px; stroke: rgb(77, 193, 250);" id="path9"/>
      <path d="M 259.467 312.56 C 256.82 313.33 254.431 314.817 252.602 316.768 C 250.708 318.787 249.102 321.939 248.395 324.588 C 247.738 327.05 247.715 329.566 248.229 332.083 C 248.778 334.77 250.296 338.031 251.821 340.208 C 253.181 342.152 253.681 342.668 256.685 344.772 C 263.044 349.227 286.668 363.427 294.359 365.977 C 298.298 367.284 299.924 366.756 302.347 366.342 C 304.61 365.958 306.694 365 308.509 363.79 C 310.324 362.579 312.035 360.913 313.24 359.08 C 314.448 357.244 315.339 354.966 315.746 352.785 C 316.148 350.623 316.165 348.299 315.684 346.052 C 315.175 343.684 314.636 341.42 312.618 338.944 C 309.767 335.442 304.155 331.674 298.097 327.792 C 290.444 322.888 276.235 314.181 269.307 312.286 C 264.993 311.109 262.327 311.729 259.466 312.56 L 259.467 312.56 Z" style="fill: rgb(221, 244, 255); stroke-width: 6.96258px; stroke: rgb(77, 193, 250);" id="path10"/>
    </g>
    <g transform="matrix(0.962909, 0, 0, 0.962909, 9.383588, 11.904711)" id="g13" style="">
      <title id="title10">Nariz</title>
      <path style="fill: rgb(235, 96, 133); stroke: rgb(197, 81, 112); stroke-width: 7.0286px;" d="M 246.996 334.77 H 246.996 A 19.388 19.388 0 0 1 266.384 354.158 V 379.58 A 7.651 7.651 0 0 1 258.733 387.231 H 235.259 A 7.651 7.651 0 0 1 227.608 379.58 V 354.158 A 19.388 19.388 0 0 1 246.996 334.77 Z" bx:shape="rect 227.608 334.77 38.776 52.461 19.388 19.388 7.651 7.651 1@b5aaa41c" id="path11"/>
      <path style="fill: none; stroke: rgb(197, 81, 112); stroke-miterlimit: 4.01; stroke-width: 3.5143px;" d="M 227.608 366.922 C 239.396 360.409 237.959 377.744 240.248 387.231" id="path12"/>
      <path style="fill: none; stroke: rgb(197, 81, 112); stroke-width: 3.5143px;" d="m 266.63812,366.29403 c -11.788,-6.513 -10.351,10.822 -12.64,20.309" id="path13"/>
    </g>
  </g>
  <path d="M 243.627 411.421 L 232.754 426.483 L 215.069 432.171 L 226.033 447.165 L 225.977 465.743 L 243.627 459.946 L 261.278 465.743 L 261.221 447.165 L 272.186 432.171 L 254.5 426.483 L 243.627 411.421 Z M 339.725 384.338 L 339.782 402.915 L 328.817 417.911 L 346.501 423.597 L 357.375 438.66 L 368.247 423.596 L 385.934 417.911 L 374.968 402.914 L 375.026 384.339 L 357.375 390.133 L 339.725 384.338 Z M 401.551 305.943 L 412.516 320.938 L 412.46 339.516 L 430.109 333.721 L 447.76 339.516 L 447.701 320.938 L 458.669 305.943 L 440.982 300.255 L 430.11 285.194 L 419.236 300.256 L 401.551 305.943 Z M 405.489 206.179 L 423.175 211.866 L 434.049 226.928 L 444.921 211.866 L 462.607 206.179 L 451.64 191.184 L 451.699 172.606 L 434.047 178.401 L 416.399 172.606 L 416.455 191.184 L 405.489 206.179 Z M 350.036 123.154 L 367.686 117.359 L 385.337 123.153 L 385.28 104.578 L 396.246 89.581 L 378.559 83.896 L 367.687 68.832 L 356.813 83.895 L 339.128 89.58 L 350.093 104.577 L 350.036 123.154 Z M 256.373 88.579 L 267.246 73.517 L 284.931 67.829 L 273.967 52.835 L 274.023 34.257 L 256.373 40.054 L 238.722 34.257 L 238.779 52.835 L 227.814 67.829 L 245.5 73.517 L 256.373 88.579 Z M 160.275 115.662 L 160.218 97.085 L 171.183 82.089 L 153.499 76.403 L 142.625 61.34 L 131.753 76.404 L 114.066 82.089 L 125.032 97.086 L 124.974 115.661 L 142.625 109.867 L 160.275 115.662 Z M 98.449 194.057 L 87.484 179.062 L 87.54 160.484 L 69.891 166.279 L 52.24 160.484 L 52.299 179.062 L 41.331 194.057 L 59.018 199.745 L 69.89 214.806 L 80.764 199.744 L 98.449 194.057 Z M 94.511 293.821 L 76.825 288.134 L 65.951 273.072 L 55.079 288.134 L 37.393 293.821 L 48.36 308.816 L 48.301 327.394 L 65.953 321.599 L 83.601 327.394 L 83.545 308.816 L 94.511 293.821 Z M 149.964 376.846 L 132.314 382.641 L 114.663 376.847 L 114.72 395.422 L 103.754 410.419 L 121.441 416.104 L 132.313 431.168 L 143.187 416.105 L 160.871 410.42 L 149.907 395.423 L 149.964 376.846 Z" style="stroke-width: 10px; stroke-linecap: round; stroke-linejoin: round; fill: none; stroke: rgb(29, 185, 210);" id="path1"/>
  <circle style="display:none;fill:none;stroke:#ed172e;stroke-width:0.765;stroke-opacity:1" cx="250" cy="250" id="ellipse5" r="170.347"/>
</svg>